<svg width="24" height="25" viewBox="0 0 24 25" fill="none" xmlns="http://www.w3.org/2000/svg">
<path d="M6.62 11.2656C8.06 14.0956 10.38 16.4056 13.21 17.8556L15.41 15.6556C15.68 15.3856 16.08 15.2956 16.43 15.4156C17.55 15.7856 18.76 15.9856 20 15.9856C20.55 15.9856 21 16.4356 21 16.9856V20.4756C21 21.0256 20.55 21.4756 20 21.4756C10.61 21.4756 3 13.8656 3 4.47559C3 3.92559 3.45 3.47559 4 3.47559H7.5C8.05 3.47559 8.5 3.92559 8.5 4.47559C8.5 5.72559 8.7 6.92559 9.07 8.04559C9.18 8.39559 9.1 8.78559 8.82 9.06559L6.62 11.2656Z" fill="white"/>
</svg>
