<svg width="24" height="25" viewBox="0 0 24 25" fill="none" xmlns="http://www.w3.org/2000/svg">
<rect y="0.475586" width="24" height="24" rx="12" fill="#FEFEFE"/>
<path d="M7.93809 7.80951C7.9379 8.16311 7.78293 8.50216 7.5073 8.75207C7.23166 9.00198 6.85793 9.14228 6.46831 9.1421C6.0787 9.14193 5.70512 9.00129 5.42975 8.75113C5.15439 8.50097 4.99981 8.16178 5 7.80818C5.00019 7.45458 5.15516 7.11553 5.43079 6.86562C5.70643 6.61571 6.08016 6.47541 6.46978 6.47559C6.85939 6.47576 7.23298 6.6164 7.50834 6.86656C7.7837 7.11672 7.93829 7.45591 7.93809 7.80951ZM7.98216 10.1294H5.04407V18.4756H7.98216V10.1294ZM12.6243 10.1294H9.70095V18.4756H12.595V14.0958C12.595 11.656 16.0986 11.4293 16.0986 14.0958V18.4756H19V13.1892C19 9.07611 13.8143 9.22943 12.595 11.2493L12.6243 10.1294Z" fill="#1B3353"/>
</svg>
