<svg width="24" height="25" viewBox="0 0 24 25" fill="none" xmlns="http://www.w3.org/2000/svg">
<rect y="0.475586" width="24" height="24" rx="12" fill="#FEFEFE"/>
<path d="M12.7196 5.47559C13.5071 5.47769 13.9067 5.48189 14.2518 5.49169L14.3876 5.49659C14.5444 5.50219 14.6991 5.50919 14.886 5.51758C15.6308 5.55258 16.1389 5.67018 16.5848 5.84308C17.0468 6.02087 17.436 6.26167 17.8251 6.65016C18.1811 7.00008 18.4565 7.42335 18.6322 7.89053C18.8051 8.33642 18.9227 8.84461 18.9577 9.59009C18.9661 9.77629 18.9731 9.93098 18.9787 10.0885L18.9829 10.2243C18.9934 10.5687 18.9976 10.9684 18.999 11.7558L18.9997 12.278V13.195C19.0014 13.7056 18.996 14.2161 18.9836 14.7266L18.9794 14.8624C18.9738 15.0199 18.9668 15.1746 18.9584 15.3608C18.9234 16.1062 18.8044 16.6137 18.6322 17.0603C18.457 17.5277 18.1815 17.9511 17.8251 18.3007C17.4751 18.6565 17.0519 18.9319 16.5848 19.1078C16.1389 19.2807 15.6308 19.3983 14.886 19.4333C14.7199 19.4411 14.5538 19.4481 14.3876 19.4543L14.2518 19.4585C13.9067 19.4683 13.5071 19.4732 12.7196 19.4746L12.1974 19.4753H11.2812C10.7704 19.477 10.2596 19.4717 9.74896 19.4592L9.61317 19.455C9.447 19.4487 9.28088 19.4414 9.11479 19.4333C8.37003 19.3983 7.86186 19.2807 7.41528 19.1078C6.94817 18.9323 6.52508 18.6569 6.17564 18.3007C5.81939 17.9509 5.54373 17.5276 5.36789 17.0603C5.19499 16.6144 5.0774 16.1062 5.0424 15.3608C5.0346 15.1947 5.0276 15.0285 5.0214 14.8624L5.0179 14.7266C5.005 14.2162 4.99917 13.7056 5.0004 13.195V11.7558C4.99845 11.2453 5.00358 10.7347 5.0158 10.2243L5.0207 10.0885C5.0263 9.93098 5.0333 9.77629 5.0417 9.59009C5.0767 8.84461 5.19429 8.33712 5.36718 7.89053C5.54296 7.42287 5.81917 6.99947 6.17634 6.65016C6.52569 6.2942 6.9485 6.01876 7.41528 5.84308C7.86186 5.67018 8.36933 5.55258 9.11479 5.51758C9.30098 5.50919 9.45638 5.50219 9.61317 5.49659L9.74896 5.49239C10.2594 5.47995 10.7699 5.47458 11.2805 5.47629L12.7196 5.47559ZM12 8.9755C11.0718 8.9755 10.1816 9.34424 9.5253 10.0006C8.86895 10.657 8.50022 11.5472 8.50022 12.4754C8.50022 13.4037 8.86895 14.2939 9.5253 14.9502C10.1816 15.6066 11.0718 15.9753 12 15.9753C12.9283 15.9753 13.8184 15.6066 14.4748 14.9502C15.1311 14.2939 15.4999 13.4037 15.4999 12.4754C15.4999 11.5472 15.1311 10.657 14.4748 10.0006C13.8184 9.34424 12.9283 8.9755 12 8.9755ZM12 10.3755C12.2758 10.3754 12.5489 10.4297 12.8037 10.5352C13.0585 10.6407 13.29 10.7953 13.485 10.9903C13.68 11.1853 13.8347 11.4167 13.9403 11.6715C14.0459 11.9262 14.1002 12.1993 14.1003 12.4751C14.1003 12.7508 14.0461 13.0239 13.9406 13.2787C13.8351 13.5335 13.6805 13.765 13.4855 13.9601C13.2905 14.1551 13.0591 14.3098 12.8043 14.4154C12.5496 14.521 12.2765 14.5753 12.0007 14.5754C11.4438 14.5754 10.9097 14.3541 10.5159 13.9603C10.1221 13.5665 9.90085 13.0324 9.90085 12.4754C9.90085 11.9185 10.1221 11.3843 10.5159 10.9905C10.9097 10.5967 11.4431 10.3755 12 10.3755ZM15.6756 7.92553C15.4435 7.92553 15.221 8.01771 15.0569 8.1818C14.8928 8.3459 14.8006 8.56845 14.8006 8.80051C14.8006 9.03257 14.8928 9.25512 15.0569 9.41921C15.221 9.5833 15.4435 9.67549 15.6756 9.67549C15.9076 9.67549 16.1302 9.5833 16.2942 9.41921C16.4583 9.25512 16.5505 9.03257 16.5505 8.80051C16.5505 8.56845 16.4583 8.3459 16.2942 8.1818C16.1302 8.01771 15.9076 7.92553 15.6756 7.92553Z" fill="#1B3353"/>
</svg>
