<svg width="24" height="25" viewBox="0 0 24 25" fill="none" xmlns="http://www.w3.org/2000/svg">
<path d="M12 11.9756C11.337 11.9756 10.7011 11.7122 10.2322 11.2434C9.76339 10.7745 9.5 10.1386 9.5 9.47559C9.5 8.81254 9.76339 8.17666 10.2322 7.70782C10.7011 7.23898 11.337 6.97559 12 6.97559C12.663 6.97559 13.2989 7.23898 13.7678 7.70782C14.2366 8.17666 14.5 8.81254 14.5 9.47559C14.5 9.80389 14.4353 10.129 14.3097 10.4323C14.1841 10.7356 13.9999 11.0112 13.7678 11.2434C13.5356 11.4755 13.26 11.6596 12.9567 11.7853C12.6534 11.9109 12.3283 11.9756 12 11.9756ZM12 2.47559C10.1435 2.47559 8.36301 3.21308 7.05025 4.52584C5.7375 5.83859 5 7.61907 5 9.47559C5 14.7256 12 22.4756 12 22.4756C12 22.4756 19 14.7256 19 9.47559C19 7.61907 18.2625 5.83859 16.9497 4.52584C15.637 3.21308 13.8565 2.47559 12 2.47559Z" fill="white"/>
</svg>
