<svg width="24" height="25" viewBox="0 0 24 25" fill="none" xmlns="http://www.w3.org/2000/svg">
<path d="M4 20.4756C3.45 20.4756 2.979 20.2796 2.587 19.8876C2.195 19.4956 1.99934 19.0249 2 18.4756V6.47559C2 5.92559 2.196 5.45459 2.588 5.06259C2.98 4.67059 3.45067 4.47492 4 4.47559H20C20.55 4.47559 21.021 4.67159 21.413 5.06359C21.805 5.45559 22.0007 5.92625 22 6.47559V18.4756C22 19.0256 21.804 19.4966 21.412 19.8886C21.02 20.2806 20.5493 20.4763 20 20.4756H4ZM12 13.4756L20 8.47559V6.47559L12 11.4756L4 6.47559V8.47559L12 13.4756Z" fill="white"/>
</svg>
