<svg width="21" height="21" viewBox="0 0 21 21" fill="none" xmlns="http://www.w3.org/2000/svg">
<path opacity="0.7" d="M8.92105 18.6789C8.92105 19.0976 9.08741 19.4992 9.38352 19.7953C9.67963 20.0915 10.0812 20.2578 10.5 20.2578C10.9188 20.2578 11.3204 20.0915 11.6165 19.7953C11.9126 19.4992 12.0789 19.0976 12.0789 18.6789V11.8368H18.9211C19.3398 11.8368 19.7414 11.6704 20.0375 11.3743C20.3336 11.0782 20.5 10.6766 20.5 10.2578C20.5 9.83905 20.3336 9.43744 20.0375 9.14133C19.7414 8.84522 19.3398 8.67887 18.9211 8.67887H12.0789V1.83676C12.0789 1.418 11.9126 1.01639 11.6165 0.720276C11.3204 0.424165 10.9188 0.257812 10.5 0.257812C10.0812 0.257812 9.67963 0.424165 9.38352 0.720276C9.08741 1.01639 8.92105 1.418 8.92105 1.83676V8.67887H2.07895C1.66018 8.67887 1.25857 8.84522 0.962463 9.14133C0.666353 9.43744 0.5 9.83905 0.5 10.2578C0.5 10.6766 0.666353 11.0782 0.962463 11.3743C1.25857 11.6704 1.66018 11.8368 2.07895 11.8368H8.92105V18.6789Z" fill="black"/>
</svg>
